# xmcd CD database file
#
# Track frame offsets:
#	150
#	22867
#	48004
#	65836
#	86910
#	112266
#	131933
#	156022
#	174779
#	185740
#	211237
#	225137
#
# Disc length: 3321 seconds
#
# Revision: 0
# Processed by: cddbd v1.4PL0 Copyright (c) Steve Scherf et al.
# Submitted via: CDex 1.50
#
DISCID=9c0cf70c
DTITLE=Ivan Kapec Trio - Bava
DYEAR=2003
DGENRE=Jazz
TTITLE0=Work Sunday
TTITLE1=Bava
TTITLE2=Neka
TTITLE3=Serpent Talk
TTITLE4=Numina
TTITLE5=Line On
TTITLE6=Ovcana
TTITLE7=Novalis
TTITLE8=Osijek
TTITLE9=Dissapoint
TTITLE10=Der Traurige Wolf
TTITLE11=Work Sunday (reprise)
EXTD=YEAR: 2003
EXTT0=
EXTT1=
EXTT2=
EXTT3=
EXTT4=
EXTT5=
EXTT6=
EXTT7=
EXTT8=
EXTT9=
EXTT10=
EXTT11=
PLAYORDER=
